<?xml version="1.0" encoding="UTF-8" standalone="no"?>
<!-- Created with Inkscape (http://www.inkscape.org/) -->

<svg
   version="1.1"
   id="svg884"
   viewBox="0 0 866.39557 234"
   sodipodi:docname="ADdev-logo.svg"
   inkscape:version="1.1.2 (b8e25be8, 2022-02-05)"
   xmlns:inkscape="http://www.inkscape.org/namespaces/inkscape"
   xmlns:sodipodi="http://sodipodi.sourceforge.net/DTD/sodipodi-0.dtd"
   xmlns="http://www.w3.org/2000/svg"
   xmlns:svg="http://www.w3.org/2000/svg">
  <defs
     id="defs888" />
  <sodipodi:namedview
     id="namedview886"
     pagecolor="#ffffff"
     bordercolor="#666666"
     borderopacity="1.0"
     inkscape:pageshadow="2"
     inkscape:pageopacity="0.0"
     inkscape:pagecheckerboard="true"
     showgrid="false"
     fit-margin-top="0"
     fit-margin-left="0"
     fit-margin-right="0"
     fit-margin-bottom="0"
     width="866.39557px"
     inkscape:zoom="0.7025"
     inkscape:cx="249.11032"
     inkscape:cy="198.57651"
     inkscape:window-width="1874"
     inkscape:window-height="1027"
     inkscape:window-x="0"
     inkscape:window-y="25"
     inkscape:window-maximized="0"
     inkscape:current-layer="g890" />
  <g
     inkscape:groupmode="layer"
     inkscape:label="Image"
     id="g890"
     transform="translate(-175.00073,-486)">
    <path
       style="fill:#ffffff;stroke-width:1.00194;fill-opacity:1"
       d="m 435.90868,605.69395 c 0,-100.66667 0.17612,-114 1.50583,-114 1.32971,0 1.50583,13.33333 1.50583,114 0,100.66668 -0.17612,113.99998 -1.50583,113.99998 -1.32971,0 -1.50583,-13.3333 -1.50583,-113.99998 z m 456.29521,59.93356 c -23.27923,-3.87687 -37.60682,-21.55781 -37.65933,-46.47346 -0.0612,-29.04086 23.30167,-50.65736 50.13491,-46.38732 16.0573,2.55523 25.6087,11.26486 30.55123,27.85872 1.60493,5.38834 2.28232,23.1799 1.00844,26.48671 -0.53307,1.38377 -3.7378,1.58179 -25.59913,1.58179 -27.52531,0 -26.90871,-0.16562 -22.71778,6.10212 2.81381,4.20821 8.08786,6.86977 15.01797,7.57886 4.10891,0.42042 7.07239,-0.0521 13.2082,-2.10607 4.35089,-1.45645 8.01131,-2.51913 8.13429,-2.36151 0.12296,0.15763 2.3855,4.27154 5.02784,9.14202 3.90613,7.19995 4.54369,9.03706 3.41042,9.82704 -4.00522,2.79196 -14.43119,6.83718 -21.22425,8.2349 -8.31617,1.7111 -11.59166,1.79874 -19.29281,0.5162 z m 17.68571,-59.93356 c -1.07516,-7.55311 -7.13391,-11.16474 -15.1311,-9.01966 -3.57027,0.95766 -9.10827,5.83068 -9.10827,8.0146 0,0.46282 -0.27954,1.56713 -0.62119,2.45404 -0.55494,1.44052 0.75697,1.5826 12.29762,1.33178 l 12.91881,-0.28076 z M 512.20412,663.6899 c 0,-0.84736 9.26527,-31.64667 23.6137,-78.49595 1.85293,-6.05 5.15049,-16.85 7.32791,-24 l 3.95895,-13 18.98581,-0.27088 18.98582,-0.27087 6.81632,22.27087 c 3.74898,12.24899 7.63007,24.97088 8.62465,28.27088 0.99457,3.3 5.92545,19.37469 10.9575,35.72154 5.03205,16.34684 9.14918,29.95934 9.14918,30.25 0,0.29065 -7.44526,0.52846 -16.54502,0.52846 -16.33164,0 -16.55184,-0.029 -17.07454,-2.25 -0.29125,-1.2375 -1.56723,-6.75 -2.83552,-12.25 l -2.306,-10 -16.14305,-0.27422 -16.14304,-0.27423 -1.51392,6.77423 c -0.83266,3.72582 -2.0854,9.36172 -2.78388,12.52422 l -1.26997,5.75 h -15.90245 c -9.97516,0 -15.90245,-0.37424 -15.90245,-1.00405 z m 61.71041,-56.74595 c -1.21427,-4.8125 -3.48514,-14.4875 -5.04639,-21.5 -1.56124,-7.0125 -3.20385,-12.75 -3.65025,-12.75 -0.44639,0 -0.81163,0.90426 -0.81163,2.00946 0,1.64346 -5.78365,27.52965 -8.54394,38.24054 l -0.7087,2.75 h 10.48433 10.48433 z m 57.75219,-0.85117 V 547.4916 l 24.84621,0.45728 c 21.8778,0.40264 25.74535,0.722 32.37211,2.67306 25.04266,7.37309 37.1471,25.1481 37.1471,54.54942 0,32.83248 -14.89578,52.43268 -44.03098,57.93697 -5.98168,1.13007 -14.41783,1.58562 -29.3637,1.58562 h -20.97074 z m 41.0879,32.04917 c 15.69146,-3.55512 22.25286,-14.97828 20.85151,-36.30168 -0.75657,-11.51223 -2.08839,-15.51918 -6.8789,-20.69616 -4.31644,-4.66465 -9.45789,-6.87947 -18.66959,-8.04244 l -5.27041,-0.66538 v 33.62883 c 0,29.73193 0.18061,33.62883 1.55862,33.62883 0.85725,0 4.6412,-0.6984 8.40877,-1.552 z m 74.10818,25.9922 c -0.4141,-0.42544 -0.75292,-26.84758 -0.75292,-58.71587 v -57.94233 l 25.8501,0.44759 c 24.68608,0.42743 26.21886,0.56807 34.0392,3.12325 19.1405,6.25386 30.43204,19.33839 34.029,39.43252 5.20182,29.0596 -4.55498,55.83584 -24.19239,66.39275 -10.77367,5.79184 -17.84642,7.00045 -44.12678,7.54051 -13.25131,0.27232 -24.43211,0.14703 -24.84621,-0.27842 z m 44.7646,-27.13834 c 12.66455,-3.96925 18.78703,-16.55417 17.42265,-35.81273 -1.27453,-17.99032 -8.40891,-25.93087 -25.17281,-28.01727 l -5.64296,-0.70231 v 33.52007 33.52007 l 4.26652,-0.49231 c 2.34659,-0.27077 6.45356,-1.17775 9.1266,-2.01552 z m 181.03867,25.94814 c -1.61006,-2.73906 -28.75559,-87.49705 -28.27226,-88.27606 0.347,-0.55928 6.78566,-0.97394 15.12292,-0.97394 14.09859,0 14.54681,0.0651 15.49237,2.25 0.92302,2.13284 11.46304,44.67219 14.13425,57.04564 0.68815,3.18761 1.5414,5.97432 1.89612,6.1927 0.35472,0.21838 1.67381,-4.18966 2.93128,-9.79564 3.55629,-15.8542 12.99055,-53.62682 13.66585,-54.71541 0.7278,-1.17302 28.2524,-1.34105 28.9747,-0.17689 0.4492,0.72381 -6.7406,24.19076 -22.0435,71.9496 l -5.5272,17.25 h -17.96683 c -9.88177,0 -18.16524,-0.3375 -18.4077,-0.75 z m -710.35726,-3.11867 c -3.54893,-0.93341 -6.59643,-2.1323 -6.77222,-2.66421 -0.34666,-1.04897 19.33498,-90.38694 20.07516,-91.12425 0.43552,-0.43384 15.63642,3.16147 16.18135,3.8272 0.14854,0.18146 -4.31829,20.8032 -9.92627,45.82608 -7.53248,33.60997 -10.57635,45.54005 -11.65087,45.66421 -0.8,0.0924 -4.35821,-0.59563 -7.90715,-1.52903 z m -51.51549,-23.45849 -24.83982,-15.17284 -0.006,-7.58788 -0.006,-7.58788 25.45543,-15.49415 25.45544,-15.49415 4.55767,7.55348 4.55766,7.55348 -19.53982,11.65917 -19.53984,11.65918 19.5074,11.80696 19.5074,11.80697 -4.45673,7.31241 c -2.45119,4.02183 -4.7617,7.27769 -5.13445,7.23525 -0.37275,-0.0424 -11.85566,-6.90494 -25.51756,-15.25 z m 100.60402,8.27717 c -3.49254,-5.95687 -3.97113,-7.37444 -2.83865,-8.40786 0.74917,-0.68364 9.3931,-6.08308 19.20873,-11.99875 l 17.84662,-10.75577 -18.34856,-11.02823 c -10.0917,-6.06552 -18.73977,-11.37994 -19.21793,-11.80982 -0.47815,-0.42987 1.04207,-4.12813 3.37828,-8.21835 l 4.24765,-7.43677 25.48348,15.47943 25.48349,15.47943 -0.004,7.62334 -0.004,7.62334 -24.6872,15 c -13.57796,8.25 -25.06062,15.13835 -25.51703,15.30745 -0.4564,0.16909 -2.72017,-2.91675 -5.0306,-6.85744 z"
       id="path1010" />
  </g>
</svg>
